<?xml version="1.0" encoding="UTF-8"?>
<svg width="114px" height="82px" viewBox="0 0 114 82" version="1.1" xmlns="http://www.w3.org/2000/svg" xmlns:xlink="http://www.w3.org/1999/xlink">
    <title>C91A9E82-751E-48EE-A07D-FA589049E001@1x</title>
    <g id="ðŸš¶ðŸ¼WWM---Brand" stroke="none" stroke-width="1" fill="none" fill-rule="evenodd">
        <g id="Colors" transform="translate(-489.000000, -376.000000)">
            <g id="logo-text-OB" transform="translate(489.000000, 376.000000)">
                <path d="M1.8238859,61.1589171 L7.9610897,57.4697002 L5.32081,64.1320673 L7.1446959,65.6827691 L16.0428865,60.6080113 L14.2464275,59.0806282 L7.78070611,63.1284483 L10.7220765,56.0841592 L8.92561748,54.5567762 L2.47360954,58.6162557 L5.3875531,51.5486478 L3.53829436,50 L0,59.6082153 L1.8238859,61.1589171 Z M13.6917267,70.4527262 C14.2830501,70.7965178 14.8612248,71.0077383 15.4262507,71.0863876 C15.9105586,71.1538012 16.3715579,71.1209797 16.8092487,70.987923 L17.0261517,70.9130417 L16.4380871,71.9245159 L18.4299132,73.0825508 L21.5808537,67.6271041 C22.1133084,66.6874042 22.2320664,65.7847982 21.9371276,64.9192862 C21.6421887,64.0537741 20.9552664,63.3073837 19.8763606,62.6801148 C19.1605481,62.263946 18.4887653,61.9809515 17.8610123,61.8311312 C17.3229382,61.7027138 16.6978342,61.6231291 15.9857001,61.5923771 L15.6223806,61.5810705 L15.539511,63.4067891 C16.7021324,63.3886932 17.6776587,63.6088397 18.4660899,64.0672285 C19.0781614,64.423083 19.466587,64.8293606 19.6313667,65.2860615 C19.7778376,65.6920178 19.7472193,66.1101742 19.5395117,66.5405308 L19.4533204,66.7024864 L19.3266603,66.9203423 L16.8991222,65.5089873 C15.8868037,64.9343125 14.977563,64.7075917 14.1714001,64.8288248 C13.3652373,64.950058 12.7359772,65.3997031 12.2836198,66.1777601 C12.0001425,66.6653426 11.8631087,67.175603 11.8725185,67.7085416 C11.8819283,68.2414801 12.0422448,68.7476388 12.353468,69.2270176 C12.6646912,69.7063965 13.1107775,70.114966 13.6917267,70.4527262 Z M15.0788369,69.1770736 C14.6223767,68.9116906 14.3221913,68.5983574 14.1782805,68.237074 C14.0343697,67.8757907 14.0649487,67.5187894 14.2700174,67.1660702 C14.4811175,66.8029769 14.7604938,66.614916 15.1081463,66.6018876 C15.4123422,66.5904878 15.7899617,66.7041386 16.2410049,66.94284 L16.4388044,67.0527967 L18.5395585,68.2741616 L18.1052954,69.0210964 C17.8181991,69.3955289 17.3872526,69.5995733 16.8124559,69.6332295 C16.2376591,69.6668858 15.6597862,69.5148338 15.0788369,69.1770736 Z M23.8519936,75.7327936 L29.2292039,63.5070689 L27.0872306,62.5649701 L21.7100203,74.7906948 L23.8519936,75.7327936 Z M29.9032458,77.9075682 L30.6894576,75.362226 L32.5565676,74.3187797 L33.8072504,79.1134472 L36.4729804,79.9368447 L34.6037616,73.1802452 L39.1033386,70.689228 L36.5235999,69.8923917 L31.5606653,72.5417117 L33.8449295,65.1464607 L31.6091559,64.4558692 L27.6674722,77.2169768 L29.9032458,77.9075682 Z M48.7538971,81.5777736 L51.3631131,74.9093718 L53.3386023,81.7981782 L55.7298407,81.9131344 L59.68023,72.4619234 L57.3249501,72.3486959 L54.6744178,79.5016729 L52.7042864,72.1265627 L50.3490065,72.0133352 L47.7164534,79.1671765 L45.7103635,71.7903376 L43.3002816,71.6924964 L46.3626587,81.4628175 L48.7538971,81.5777736 Z M61.5900328,70.9383235 C61.9721456,70.9002996 62.275512,70.7374597 62.5001321,70.449804 C62.7247521,70.1621483 62.8174561,69.8212935 62.778244,69.4272397 C62.7378435,69.0212449 62.5791919,68.6993728 62.3022889,68.4616234 C62.025386,68.2238741 61.6958781,68.1240113 61.3137653,68.1620352 C60.9316525,68.2000592 60.6282861,68.362899 60.403666,68.6505547 C60.1790459,68.9382104 60.0869361,69.2850357 60.1273365,69.6910306 C60.1665486,70.0850844 60.3246062,70.400986 60.6015092,70.6387353 C60.8784121,70.8764847 61.20792,70.9763474 61.5900328,70.9383235 Z M63.8594403,81.7467245 L62.905872,72.1640523 L60.5773722,72.3957605 L61.5309405,81.9784327 L63.8594403,81.7467245 Z M70.9049195,80.7287972 C71.6381815,80.5879502 72.3086334,80.2708992 72.916275,79.777644 L73.1411964,79.5844138 L72.2781398,77.9539448 C71.7858491,78.3173315 71.3629352,78.532979 71.0093982,78.6008874 C70.6794302,78.6642686 70.4144113,78.620474 70.2143414,78.4695038 C70.0392801,78.3374048 69.9087463,78.0961818 69.8227397,77.7458347 L69.7886059,77.5890049 L68.9703099,73.3288833 L71.6748684,72.8093842 L71.3523036,71.1300832 L68.6477451,71.6495823 L68.1486184,69.0510849 L65.8683044,69.489094 L66.367431,72.0875914 L65.0239902,72.3456432 L65.3642319,74.0215488 L66.6899959,73.7668924 L67.5863865,78.4335816 C67.7652119,79.3645625 68.1597233,80.018891 68.7699206,80.3965671 C69.380118,80.7742431 70.0917843,80.8849865 70.9049195,80.7287972 Z M78.2919387,78.6715615 L76.7866076,74.183273 C76.5309493,73.4210034 76.5372466,72.7227597 76.8054994,72.0885417 C77.0737522,71.4543237 77.5757283,71.0075128 78.3114277,70.748109 C78.9371714,70.5382403 79.4940844,70.557132 79.9821667,70.8047841 C80.4160177,71.0249194 80.7414647,71.3989188 80.9585075,71.9267824 L81.0348171,72.1319436 L82.7290301,77.1834014 L84.9646415,76.4335977 L83.0529282,70.7336419 C82.6904276,69.652812 82.1017944,68.8977995 81.2870284,68.4686044 C80.4722625,68.0394093 79.5415303,68.0003383 78.4948318,68.3513914 C77.0146481,68.8718132 76.1345963,69.7759802 75.8546764,71.0638926 L75.8135799,71.2820979 L74.0449589,66.0087855 L71.8264132,66.7528655 L76.0733931,79.4156416 L78.2919387,78.6715615 Z M95.0405586,71.3049598 L92.3644567,67.3781311 C91.9184398,66.7236597 91.7311092,66.0598945 91.8024649,65.3868355 C91.8738206,64.7137766 92.215102,64.1544591 92.8263091,63.7088832 C93.3617857,63.3439602 93.8930404,63.2178911 94.4200732,63.3306759 C94.8885469,63.430929 95.3009864,63.7099241 95.6573918,64.1676612 L95.7884172,64.3476911 L98.788895,68.7504989 L100.737435,67.4225848 L98.0613331,63.4957561 C97.6153162,62.8412847 97.4279855,62.1775195 97.4993413,61.5044606 C97.570697,60.8314016 97.9070203,60.2754631 98.5083111,59.836645 C99.0437877,59.471722 99.5775215,59.3439634 100.109512,59.4533693 C100.582393,59.550619 100.997281,59.8279454 101.354176,60.2853487 L101.485294,60.4653161 L104.485771,64.8681239 L106.434311,63.5402098 L103.048637,58.5721766 C102.406643,57.6301344 101.640294,57.0596414 100.74959,56.8606978 C99.8588861,56.6617541 98.9623456,56.8697636 98.0599683,57.4847264 C96.6058813,58.5047182 96.0517174,59.8117615 96.3974764,61.4058565 C95.7968401,60.929365 95.1478177,60.6855209 94.4504092,60.6743241 C93.7530007,60.6631274 93.0572283,60.8940531 92.3630919,61.3671014 C91.1076621,62.2501813 90.5203878,63.3295824 90.601269,64.6053046 L90.6209359,64.8197428 L89.6173977,63.347182 L87.6837321,64.6649595 L93.106893,72.6227372 L95.0405586,71.3049598 Z M112.116677,58.4704081 C112.705177,57.8710178 113.138379,57.2242589 113.416283,56.5301315 C113.65945,55.9227699 113.780737,55.3084048 113.780147,54.6870362 L113.772429,54.4203065 L111.952063,54.3988111 C111.964982,54.882374 111.880169,55.3498617 111.697624,55.8012742 C111.515078,56.2526866 111.251459,56.6539286 110.906767,57.005 C110.410746,57.5102004 109.853347,57.7995798 109.23457,57.8731381 C108.684546,57.9385233 108.14298,57.8295087 107.609872,57.5460943 L107.410353,57.4316389 L112.391578,52.3582283 L112.239355,52.1926266 L112.239355,52.1926266 L112.029665,51.9786745 C111.989928,51.9389866 111.947796,51.8972841 111.90327,51.853567 C110.772991,50.7438257 109.624182,50.1582424 108.456844,50.0968172 C107.289506,50.0353919 106.16778,50.5526933 105.091667,51.6487212 C104.427504,52.325176 103.982508,53.0738706 103.75668,53.8948052 C103.530851,54.7157397 103.538358,55.534535 103.779201,56.3511909 C104.020043,57.1678468 104.482973,57.91246 105.167991,58.5850305 C105.853008,59.257601 106.601742,59.7068393 107.414192,59.9327455 C108.226641,60.1586516 109.041155,60.146941 109.857733,59.8976136 C110.674311,59.6482861 111.427293,59.172551 112.116677,58.4704081 Z M109.786081,52.7766988 L106.255086,56.3730405 C105.816987,55.7915482 105.612068,55.1909466 105.640329,54.571236 C105.66859,53.9515253 105.922323,53.3976325 106.40153,52.9095575 C106.914365,52.3872317 107.476162,52.1147833 108.086921,52.0922123 C108.636604,52.0718984 109.150346,52.2546784 109.628146,52.6405522 L109.786081,52.7766988 Z" id="Text" fill="#333232"></path>
                <path d="M9.88123058,26.6766661 L9.83801234,26.7121934 L2.31893381,32.7852866 C1.73343143,33.2581917 0.885081508,33.1546459 0.424091231,32.5540105 C-0.0286670761,31.9641008 0.0606122522,31.114094 0.618638134,30.6359041 L0.649540341,30.6101936 L8.16861887,24.5371004 C8.18556681,24.5234117 8.19899448,24.5110106 8.20941969,24.5000862 C8.20246955,24.4926883 8.19418498,24.4847108 8.18441257,24.4761585 L8.16861887,24.4628996 L0.649540341,18.3898064 C0.0640379592,17.9169013 -0.0368990453,17.0466248 0.424091231,16.4459895 C0.876849539,15.8560797 1.70325674,15.7456649 2.28731986,16.1899302 L2.31893381,16.2147134 L9.83801234,22.2878066 C10.1386837,22.5306562 10.3772291,22.8118629 10.5536484,23.1155758 L13.5168741,23.115 L7.66593378,18.3898064 C7.0804314,17.9169013 6.9794944,17.0466248 7.44048467,16.4459895 C7.89324298,15.8560797 8.71965018,15.7456649 9.30371331,16.1899302 L9.33532725,16.2147134 L16.8544058,22.2878066 C17.1550772,22.5306562 17.3936225,22.8118629 17.5700419,23.1155758 L20.7788741,23.115 L20.779319,13.73621 C20.779319,12.7502544 21.3994997,11.9404157 22.4405929,11.3061916 L22.6406818,11.1893325 L22.7596305,11.1244746 C22.997071,10.9981672 23.2545266,10.8788453 23.539022,10.7634527 L23.539022,10.7634527 L23.682082,10.7068144 C23.8092482,10.6576202 23.9402213,10.6098727 24.0748848,10.5636048 L24.0748848,10.5636048 L53.3740731,0.496930355 C55.3025028,-0.165643452 58.3090987,-0.165643452 60.2375285,0.496930355 L60.2375285,0.496930355 L89.5367167,10.5636048 C89.6713802,10.6098727 89.8023533,10.6576202 89.9375144,10.7099444 L89.9375144,10.7099444 L90.0807198,10.7667165 C90.3570749,10.8788453 90.6145305,10.9981672 90.8621185,11.1299429 L90.8621185,11.1299429 L90.9812716,11.1950575 C92.1321566,11.8398739 92.8322825,12.6886321 92.8322825,13.73621 L92.8322825,13.73621 L92.8318741,23.115 L102.570874,23.115 L96.7201582,18.3898064 C96.1346559,17.9169013 96.0337189,17.0466248 96.4947091,16.4459895 C96.9474674,15.8560797 97.7738746,15.7456649 98.3579378,16.1899302 L98.3895517,16.2147134 L105.90863,22.2878066 C106.623847,22.8654808 106.987532,23.6601938 106.999685,24.4585947 C106.999795,24.4718601 107,24.4859054 107,24.5 L106.999942,24.5177267 C106.994794,25.3078277 106.645429,26.0963826 105.951848,26.6766661 L105.90863,26.7121934 L98.3895517,32.7852866 C97.8040493,33.2581917 96.9556994,33.1546459 96.4947091,32.5540105 C96.0419508,31.9641008 96.1312302,31.114094 96.689256,30.6359041 L96.7201582,30.6101936 L102.570874,25.884 L92.8318741,25.884 L92.8322825,35.26379 C92.8322825,36.2497456 92.2121018,37.0595843 91.1710086,37.6938084 L90.9709197,37.8106675 L90.851971,37.8755254 C90.6145305,38.0018328 90.3570749,38.1211547 90.0725795,38.2365473 L90.0725795,38.2365473 L89.9295195,38.2931856 C89.8023533,38.3423798 89.6713802,38.3901273 89.5367167,38.4363952 L89.5367167,38.4363952 L60.2375285,48.5030696 C58.3090987,49.1656435 55.3025028,49.1656435 53.3740731,48.5030696 L53.3740731,48.5030696 L24.0748848,38.4363952 C23.9402213,38.3901273 23.8092482,38.3423798 23.6740871,38.2900556 L23.6740871,38.2900556 L23.5308817,38.2332835 C23.2545266,38.1211547 22.997071,38.0018328 22.749483,37.8700571 L22.749483,37.8700571 L22.6303299,37.8049425 C21.4794449,37.1601261 20.779319,36.3113679 20.779319,35.26379 L20.779319,35.26379 L20.7788741,25.884 L17.569927,25.8846219 C17.4020585,26.1735607 17.1779575,26.4421254 16.897624,26.6766661 L16.8544058,26.7121934 L9.33532725,32.7852866 C8.74982487,33.2581917 7.90147495,33.1546459 7.44048467,32.5540105 C6.98772637,31.9641008 7.07700569,31.114094 7.63503158,30.6359041 L7.66593378,30.6101936 L13.5168741,25.884 L10.5535336,25.8846219 C10.385665,26.1735607 10.161564,26.4421254 9.88123058,26.6766661 Z M59.5518947,2.59696384 C58.0684078,2.08726441 55.5431937,2.08726441 54.0597068,2.59696384 L54.0597068,2.59696384 L24.6953913,12.6862773 L24.6953913,12.6862773 L24.6315693,12.7089797 L24.509402,12.7539581 L24.4518371,12.7759263 L24.3249122,12.8261707 C24.1146742,12.9114731 23.9237395,12.9999648 23.7636021,13.0850802 L23.7636021,13.0850802 L23.6651528,13.1387447 C23.3560034,13.3119545 23.1371108,13.4835453 23.0137599,13.6330829 C22.9735154,13.681871 22.9498526,13.7204822 22.9390088,13.7471791 L22.9390088,13.7471791 L22.9382093,13.7485141 L22.9382093,35.2513475 L22.944452,35.2649868 C22.9548685,35.2864622 22.9720996,35.3138897 22.9975165,35.3466361 L22.9975165,35.3466361 L23.0137599,35.3669171 C23.1371108,35.5164547 23.3560034,35.6880455 23.6548009,35.8555303 L23.6548009,35.8555303 L23.7534545,35.9094514 C23.9237395,36.0000352 24.1146742,36.0885269 24.316772,36.1705654 L24.316772,36.1705654 L24.4438422,36.2209437 C24.5454986,36.2602695 24.6511021,36.2987682 24.7605186,36.3363618 L24.7605186,36.3363618 L54.0597068,46.4030362 C55.5431937,46.9127356 58.0684078,46.9127356 59.5518947,46.4030362 L59.5518947,46.4030362 L88.9162103,36.3137227 L88.9162103,36.3137227 L88.9800322,36.2910203 L89.1021995,36.2460419 L89.1597644,36.2240737 L89.2866893,36.1738293 C89.4969273,36.0885269 89.687862,36.0000352 89.8479995,35.9149198 L89.8479995,35.9149198 L89.9464488,35.8612553 C90.2555981,35.6880455 90.4744907,35.5164547 90.5978416,35.3669171 C90.6380861,35.318129 90.6617489,35.2795178 90.6725927,35.2528209 L90.6725927,35.2528209 L90.6734274,35.2511444 L90.6734274,13.7488556 L90.6671496,13.7350132 C90.6546497,13.7092427 90.6323369,13.6749013 90.5978416,13.6330829 C90.4744907,13.4835453 90.2555981,13.3119545 89.9568006,13.1444697 L89.9568006,13.1444697 L89.858147,13.0905486 C89.687862,12.9999648 89.4969273,12.9114731 89.2948295,12.8294346 L89.2948295,12.8294346 L89.1677593,12.7790563 C89.0661029,12.7397305 88.9604995,12.7012318 88.8510829,12.6636382 L88.8510829,12.6636382 Z M59.6084805,4.80655224 L86.192686,13.4436398 C87.6793198,13.9266403 88.5145019,14.5817296 88.5145019,15.2647955 L88.5145019,33.7352045 C88.5145019,34.4182704 87.6793198,35.0733597 86.192686,35.5563602 L59.6084805,44.1934478 C58.0606032,44.696346 55.5509983,44.696346 54.0031211,44.1934478 L27.4189155,35.5563602 C25.9322818,35.0733597 25.0970996,34.4182704 25.0970996,33.7352045 L25.0970996,15.2647955 C25.0970996,14.5817296 25.9322818,13.9266403 27.4189155,13.4436398 L54.0031211,4.80655224 C55.5509983,4.30365396 58.0606032,4.30365396 59.6084805,4.80655224 Z" id="Shape" fill="#FF8A44"></path>
                <polygon id="Typeface" fill="#FFFFFF" points="69.6127226 18.9632768 71.2552746 24.744848 75.1463686 18.9632768 79.0693569 18.9632768 76.9005504 30.0367232 73.6632877 30.0367232 74.8433736 23.9866091 71.622058 28.9625515 69.2140449 28.9625515 67.9542235 23.9708125 66.7581904 30.0367232 63.5209278 30.0367232 65.0197037 22.3841412 61.3495593 30.0367232 57.6705021 30.0367232 57.2548763 23.4337266 54.6379737 30.0367232 50.9589164 30.0367232 50.0392989 24.0772712 47.1812937 30.0367232 43.5022364 30.0367232 43.0866107 23.4337266 40.469708 30.0367232 36.7906507 30.0367232 35.0819672 18.9632768 38.8995664 18.9632768 39.3613728 26.2139357 42.1322109 18.9790735 45.6111521 18.9632768 46.0729585 26.2139357 48.8437966 18.9632768 53.0678321 18.9632768 53.5296384 26.2139357 56.3004765 18.9790735 59.7794177 18.9632768 60.2412241 26.2139357 63.0120622 18.9632768"></polygon>
            </g>
        </g>
    </g>
</svg>