<?xml version="1.0" encoding="UTF-8"?>
<svg width="107px" height="49px" viewBox="0 0 107 49" version="1.1" xmlns="http://www.w3.org/2000/svg" xmlns:xlink="http://www.w3.org/1999/xlink">
    <title>4D310E0F-4F15-43B4-8BDE-B06C7513FE35@1x</title>
    <g id="ðŸš¶ðŸ¼WWM---Brand" stroke="none" stroke-width="1" fill="none" fill-rule="evenodd">
        <g id="Colors" transform="translate(-376.000000, -24.000000)">
            <g id="Group" transform="translate(376.000000, 24.000000)">
                <path d="M9.88123058,26.6766661 L9.83801234,26.7121934 L2.31893381,32.7852866 C1.73343143,33.2581917 0.885081508,33.1546459 0.424091231,32.5540105 C-0.0286670761,31.9641008 0.0606122522,31.114094 0.618638134,30.6359041 L0.649540341,30.6101936 L8.16861887,24.5371004 C8.18556681,24.5234117 8.19899448,24.5110106 8.20941969,24.5000862 C8.20246955,24.4926883 8.19418498,24.4847108 8.18441257,24.4761585 L8.16861887,24.4628996 L0.649540341,18.3898064 C0.0640379592,17.9169013 -0.0368990453,17.0466248 0.424091231,16.4459895 C0.876849539,15.8560797 1.70325674,15.7456649 2.28731986,16.1899302 L2.31893381,16.2147134 L9.83801234,22.2878066 C10.1386837,22.5306562 10.3772291,22.8118629 10.5536484,23.1155758 L13.5168741,23.115 L7.66593378,18.3898064 C7.0804314,17.9169013 6.9794944,17.0466248 7.44048467,16.4459895 C7.89324298,15.8560797 8.71965018,15.7456649 9.30371331,16.1899302 L9.33532725,16.2147134 L16.8544058,22.2878066 C17.1550772,22.5306562 17.3936225,22.8118629 17.5700419,23.1155758 L20.7788741,23.115 L20.779319,13.73621 C20.779319,12.7502544 21.3994997,11.9404157 22.4405929,11.3061916 L22.6406818,11.1893325 L22.7596305,11.1244746 C22.997071,10.9981672 23.2545266,10.8788453 23.539022,10.7634527 L23.539022,10.7634527 L23.682082,10.7068144 C23.8092482,10.6576202 23.9402213,10.6098727 24.0748848,10.5636048 L24.0748848,10.5636048 L53.3740731,0.496930355 C55.3025028,-0.165643452 58.3090987,-0.165643452 60.2375285,0.496930355 L60.2375285,0.496930355 L89.5367167,10.5636048 C89.6713802,10.6098727 89.8023533,10.6576202 89.9375144,10.7099444 L89.9375144,10.7099444 L90.0807198,10.7667165 C90.3570749,10.8788453 90.6145305,10.9981672 90.8621185,11.1299429 L90.8621185,11.1299429 L90.9812716,11.1950575 C92.1321566,11.8398739 92.8322825,12.6886321 92.8322825,13.73621 L92.8322825,13.73621 L92.8318741,23.115 L102.570874,23.115 L96.7201582,18.3898064 C96.1346559,17.9169013 96.0337189,17.0466248 96.4947091,16.4459895 C96.9474674,15.8560797 97.7738746,15.7456649 98.3579378,16.1899302 L98.3895517,16.2147134 L105.90863,22.2878066 C106.623847,22.8654808 106.987532,23.6601938 106.999685,24.4585947 C106.999795,24.4718601 107,24.4859054 107,24.5 L106.999942,24.5177267 C106.994794,25.3078277 106.645429,26.0963826 105.951848,26.6766661 L105.90863,26.7121934 L98.3895517,32.7852866 C97.8040493,33.2581917 96.9556994,33.1546459 96.4947091,32.5540105 C96.0419508,31.9641008 96.1312302,31.114094 96.689256,30.6359041 L96.7201582,30.6101936 L102.570874,25.884 L92.8318741,25.884 L92.8322825,35.26379 C92.8322825,36.2497456 92.2121018,37.0595843 91.1710086,37.6938084 L90.9709197,37.8106675 L90.851971,37.8755254 C90.6145305,38.0018328 90.3570749,38.1211547 90.0725795,38.2365473 L90.0725795,38.2365473 L89.9295195,38.2931856 C89.8023533,38.3423798 89.6713802,38.3901273 89.5367167,38.4363952 L89.5367167,38.4363952 L60.2375285,48.5030696 C58.3090987,49.1656435 55.3025028,49.1656435 53.3740731,48.5030696 L53.3740731,48.5030696 L24.0748848,38.4363952 C23.9402213,38.3901273 23.8092482,38.3423798 23.6740871,38.2900556 L23.6740871,38.2900556 L23.5308817,38.2332835 C23.2545266,38.1211547 22.997071,38.0018328 22.749483,37.8700571 L22.749483,37.8700571 L22.6303299,37.8049425 C21.4794449,37.1601261 20.779319,36.3113679 20.779319,35.26379 L20.779319,35.26379 L20.7788741,25.884 L17.569927,25.8846219 C17.4020585,26.1735607 17.1779575,26.4421254 16.897624,26.6766661 L16.8544058,26.7121934 L9.33532725,32.7852866 C8.74982487,33.2581917 7.90147495,33.1546459 7.44048467,32.5540105 C6.98772637,31.9641008 7.07700569,31.114094 7.63503158,30.6359041 L7.66593378,30.6101936 L13.5168741,25.884 L10.5535336,25.8846219 C10.385665,26.1735607 10.161564,26.4421254 9.88123058,26.6766661 Z M59.5518947,2.59696384 C58.0684078,2.08726441 55.5431937,2.08726441 54.0597068,2.59696384 L54.0597068,2.59696384 L24.6953913,12.6862773 L24.6953913,12.6862773 L24.6315693,12.7089797 L24.509402,12.7539581 L24.4518371,12.7759263 L24.3249122,12.8261707 C24.1146742,12.9114731 23.9237395,12.9999648 23.7636021,13.0850802 L23.7636021,13.0850802 L23.6651528,13.1387447 C23.3560034,13.3119545 23.1371108,13.4835453 23.0137599,13.6330829 C22.9735154,13.681871 22.9498526,13.7204822 22.9390088,13.7471791 L22.9390088,13.7471791 L22.9382093,13.7485141 L22.9382093,35.2513475 L22.944452,35.2649868 C22.9548685,35.2864622 22.9720996,35.3138897 22.9975165,35.3466361 L22.9975165,35.3466361 L23.0137599,35.3669171 C23.1371108,35.5164547 23.3560034,35.6880455 23.6548009,35.8555303 L23.6548009,35.8555303 L23.7534545,35.9094514 C23.9237395,36.0000352 24.1146742,36.0885269 24.316772,36.1705654 L24.316772,36.1705654 L24.4438422,36.2209437 C24.5454986,36.2602695 24.6511021,36.2987682 24.7605186,36.3363618 L24.7605186,36.3363618 L54.0597068,46.4030362 C55.5431937,46.9127356 58.0684078,46.9127356 59.5518947,46.4030362 L59.5518947,46.4030362 L88.9162103,36.3137227 L88.9162103,36.3137227 L88.9800322,36.2910203 L89.1021995,36.2460419 L89.1597644,36.2240737 L89.2866893,36.1738293 C89.4969273,36.0885269 89.687862,36.0000352 89.8479995,35.9149198 L89.8479995,35.9149198 L89.9464488,35.8612553 C90.2555981,35.6880455 90.4744907,35.5164547 90.5978416,35.3669171 C90.6380861,35.318129 90.6617489,35.2795178 90.6725927,35.2528209 L90.6725927,35.2528209 L90.6734274,35.2511444 L90.6734274,13.7488556 L90.6671496,13.7350132 C90.6546497,13.7092427 90.6323369,13.6749013 90.5978416,13.6330829 C90.4744907,13.4835453 90.2555981,13.3119545 89.9568006,13.1444697 L89.9568006,13.1444697 L89.858147,13.0905486 C89.687862,12.9999648 89.4969273,12.9114731 89.2948295,12.8294346 L89.2948295,12.8294346 L89.1677593,12.7790563 C89.0661029,12.7397305 88.9604995,12.7012318 88.8510829,12.6636382 L88.8510829,12.6636382 Z M59.6084805,4.80655224 L86.192686,13.4436398 C87.6793198,13.9266403 88.5145019,14.5817296 88.5145019,15.2647955 L88.5145019,33.7352045 C88.5145019,34.4182704 87.6793198,35.0733597 86.192686,35.5563602 L59.6084805,44.1934478 C58.0606032,44.696346 55.5509983,44.696346 54.0031211,44.1934478 L27.4189155,35.5563602 C25.9322818,35.0733597 25.0970996,34.4182704 25.0970996,33.7352045 L25.0970996,15.2647955 C25.0970996,14.5817296 25.9322818,13.9266403 27.4189155,13.4436398 L54.0031211,4.80655224 C55.5509983,4.30365396 58.0606032,4.30365396 59.6084805,4.80655224 Z" id="Shape" fill="#FF8A44"></path>
                <polygon id="Typeface" fill="#FFFFFF" points="69.6127226 18.9632768 71.2552746 24.744848 75.1463686 18.9632768 79.0693569 18.9632768 76.9005504 30.0367232 73.6632877 30.0367232 74.8433736 23.9866091 71.622058 28.9625515 69.2140449 28.9625515 67.9542235 23.9708125 66.7581904 30.0367232 63.5209278 30.0367232 65.0197037 22.3841412 61.3495593 30.0367232 57.6705021 30.0367232 57.2548763 23.4337266 54.6379737 30.0367232 50.9589164 30.0367232 50.0392989 24.0772712 47.1812937 30.0367232 43.5022364 30.0367232 43.0866107 23.4337266 40.469708 30.0367232 36.7906507 30.0367232 35.0819672 18.9632768 38.8995664 18.9632768 39.3613728 26.2139357 42.1322109 18.9790735 45.6111521 18.9632768 46.0729585 26.2139357 48.8437966 18.9632768 53.0678321 18.9632768 53.5296384 26.2139357 56.3004765 18.9790735 59.7794177 18.9632768 60.2412241 26.2139357 63.0120622 18.9632768"></polygon>
            </g>
        </g>
    </g>
</svg>